<?xml version="1.0" standalone="no"?>
<!DOCTYPE svg PUBLIC "-//W3C//DTD SVG 20010904//EN"
 "http://www.w3.org/TR/2001/REC-SVG-20010904/DTD/svg10.dtd">
<svg version="1.0" xmlns="http://www.w3.org/2000/svg"
 width="888.000000pt" height="888.000000pt" viewBox="0 0 888.000000 888.000000"
 preserveAspectRatio="xMidYMid meet">
<metadata>
Created by potrace 1.14, written by Peter Selinger 2001-2017
</metadata>
<g transform="translate(0.000000,888.000000) scale(0.100000,-0.100000)"
fill="#000000" stroke="none">
<path d="M701 8855 c-187 -41 -320 -113 -449 -244 -129 -131 -221 -320 -239
-493 -4 -35 -7 -1699 -7 -3698 0 -2858 3 -3650 13 -3705 59 -332 291 -585 631
-686 l75 -22 3683 -2 c2026 -1 3707 2 3735 6 376 58 683 375 724 748 9 75 9
7280 1 7351 -43 369 -317 666 -688 745 -97 21 -7383 20 -7479 0z"/>
</g>
</svg>
