<svg xmlns="http://www.w3.org/2000/svg" viewBox="0 0 295.57 295.57"><defs><style>.cls-1{fill:#0098b3;}.cls-2{fill:#fff;}</style></defs><title>logo_1</title><g id="Layer_2" data-name="Layer 2"><g id="Layer_1-2" data-name="Layer 1"><rect class="cls-1" width="295.57" height="295.57" rx="28.72"/><rect class="cls-2" x="83.66" y="145.85" width="13.38" height="44.78" rx="1.71"/><path class="cls-2" d="M105.5,138h8.27a3.51,3.51,0,0,1,3.51,3.51v53.57a3.51,3.51,0,0,1-3.51,3.51H105.5a3.51,3.51,0,0,1-3.51-3.51V141.55A3.5,3.5,0,0,1,105.5,138Z"/><rect class="cls-2" x="192.61" y="145.85" width="13.38" height="44.78" rx="1.71"/><path class="cls-2" d="M175.88,138h8.27a3.5,3.5,0,0,1,3.5,3.5v53.57a3.51,3.51,0,0,1-3.51,3.51h-8.27a3.51,3.51,0,0,1-3.51-3.51V141.55A3.51,3.51,0,0,1,175.88,138Z"/><path class="cls-2" d="M122.22,163.37v9.73A1.84,1.84,0,0,0,124,175h41.63a1.84,1.84,0,0,0,1.79-1.89v-9.73a1.84,1.84,0,0,0-1.79-1.89H124A1.84,1.84,0,0,0,122.22,163.37Z"/><path class="cls-2" d="M151.39,72.5V51.25h16.79a2.9,2.9,0,0,0,2.9-2.9V37.9a2.89,2.89,0,0,0-2.9-2.89H118.36a2.89,2.89,0,0,0-2.89,2.89V48.35a2.89,2.89,0,0,0,2.89,2.9h17.28V72.48a94.6,94.6,0,1,0,15.75,0Zm-8,173.13a78.86,78.86,0,1,1,78.87-78.86A79,79,0,0,1,143.39,245.63Z"/><rect class="cls-2" x="210.47" y="72.18" width="36.54" height="17.52" rx="2.56" transform="translate(124.23 -138.03) rotate(45)"/></g></g></svg>